# xmcd
#
# Track frame offsets:
# 182
# 18415
# 31940
# 48295
# 71227
# 83145
# 97925
# 114397
# 124225
# 144820
# 159282
# 170162
# 185370
# 198442
# 215127
# 229605
# 247045
# 266330
#
# Disc length: 3694 seconds
#
# Revision: 2
# Processed by: cddbd v1.5.1PL2 Copyright (c) Steve Scherf et al.
# Submitted via: Audio-CD-Archiv 4.00.530
#
DISCID=f40e6c12
DTITLE=Commitments, The - The Best Of
DYEAR=1996
DGENRE=blues
TTITLE0=Commitments, The - Mustang Sally
TTITLE1=Commitments, The - Chain Of Fools
TTITLE2=Commitments, The - Treat Her Right
TTITLE3=Commitments, The - Same Old Me
TTITLE4=Commitments, The - The Dark End Of The Street
TTITLE5=Commitments, The - Do Right Woman Do Right Man
TTITLE6=Commitments, The - Take Me To The River
TTITLE7=Commitments, The - Mr. Pitiful
TTITLE8=Commitments, The - Try A Little Tenderness
TTITLE9=Commitments, The - I Never Loved A Man
TTITLE10=Commitments, The - Hard To Handle
TTITLE11=Commitments, The - (She's) Some Kind Of Wonderful
TTITLE12=Commitments, The - Fa-Fa-Fa-Fa (Sad Song)
TTITLE13=Commitments, The - Bring It On Home To Me
TTITLE14=Commitments, The - I Can't Stand The Rain
TTITLE15=Commitments, The - Ain't Nothing You Can Do
TTITLE16=Commitments, The - Half A Man
TTITLE17=Commitments, The - In The Midnight Hour
EXTD=
EXTT0=
EXTT1=
EXTT2=
EXTT3=
EXTT4=
EXTT5=
EXTT6=
EXTT7=
EXTT8=
EXTT9=
EXTT10=
EXTT11=
EXTT12=
EXTT13=
EXTT14=
EXTT15=
EXTT16=
EXTT17=
PLAYORDER=
